# xmcd
#
# Track frame offsets: 
#        150
#        21367
#        43262
#        55950
#        75305
#        93250
#        112672
#        129112
#        142175
#        164910
#        176212
#        190117
#        205435
#        229960
#
# Disc length: 3436 seconds
#
# Revision: 0
# Processed by: cddbd v1.4PL0 Copyright (c) Steve Scherf et al.
# Submitted via: ExactAudioCopy v0.90b4
#
DISCID=c40d6a0e
DTITLE=Jan Verin - leisestärke
DYEAR=1992
DGENRE=Blues
TTITLE0=Draw me nearer blessed Lord
TTITLE1=Kreuzzeichen
TTITLE2=Meeting at the building
TTITLE3=Wandlungen
TTITLE4=My Lord what a mornin'
TTITLE5=Oh what a beautiful morning
TTITLE6=I don't intend to die in Egyptsland
TTITLE7=Wie komisch, dass man gleich so tot sein kann
TTITLE8=Unter all die Sterne
TTITLE9=I'm a strange everywhere
TTITLE10=Nobody knows you when you're down and out
TTITLE11=Pardon
TTITLE12=Amazing Grace
TTITLE13=Gnade für die Welt
EXTD=
EXTT0=
EXTT1=
EXTT2=
EXTT3=
EXTT4=
EXTT5=
EXTT6=
EXTT7=
EXTT8=
EXTT9=
EXTT10=
EXTT11=
EXTT12=
EXTT13=
PLAYORDER=
